<?xml version="1.0" encoding="utf-8"?>
<!-- Generator: Adobe Illustrator 27.3.0, SVG Export Plug-In . SVG Version: 6.00 Build 0)  -->
<svg version="1.1" id="Calque_1" xmlns="http://www.w3.org/2000/svg" xmlns:xlink="http://www.w3.org/1999/xlink" x="0px" y="0px"
	 viewBox="0 0 20 16" style="enable-background:new 0 0 20 16;" xml:space="preserve">
<style type="text/css">
	.st0{fill:#667085;}
</style>
<path class="st0" d="M5.6,13.4c-1.5,0-2.8-0.5-3.8-1.6S0.2,9.5,0.2,8s0.5-2.8,1.6-3.8s2.3-1.6,3.8-1.6c1.2,0,2.2,0.3,3,0.9
	C9.4,4,10,4.8,10.4,5.7h9.5v4.7h-2.3v3h-4.2v-3h-2.9c-0.4,0.9-1,1.6-1.8,2.2C7.8,13.1,6.8,13.4,5.6,13.4z M5.6,12
	c1.1,0,1.9-0.4,2.6-1.1c0.7-0.7,1.1-1.4,1.2-2h5.5v3H16v-3h2.3V7.1h-9c-0.1-0.6-0.5-1.3-1.2-2S6.7,4,5.6,4c-1.1,0-2,0.4-2.8,1.2
	S1.6,6.9,1.6,8s0.4,2,1.2,2.8S4.5,12,5.6,12z M5.6,9.6c0.4,0,0.8-0.2,1.1-0.5C7,8.8,7.2,8.4,7.2,8c0-0.4-0.2-0.8-0.5-1.1
	C6.4,6.6,6,6.4,5.6,6.4S4.8,6.6,4.5,6.9C4.2,7.2,4,7.6,4,8c0,0.4,0.2,0.8,0.5,1.1C4.8,9.4,5.2,9.6,5.6,9.6z"/>
</svg>
